<svg xmlns="http://www.w3.org/2000/svg" width="866" height="1211" viewBox="0 0 866 1211">
<g>
<path d="M 866.00 0.00 L 866.00 1211.00 L 0.00 1211.00 L 55.75 1210.88 C92.59,1210.81 109.63,1210.46 106.00,1209.87 C95.98,1208.23 94.14,1207.27 93.40,1203.32 C92.57,1198.92 94.47,1191.87 101.15,1174.55 C103.92,1167.37 118.47,1125.50 133.49,1081.50 C148.51,1037.50 166.52,985.08 173.51,965.00 C202.10,882.92 302.58,582.90 305.55,570.74 C305.96,569.06 307.06,567.79 308.36,567.50 C314.60,566.08 353.30,560.00 356.07,560.00 C361.32,560.00 392.00,566.15 392.00,567.20 C392.00,567.74 381.68,599.52 369.06,637.84 C356.44,676.15 335.97,738.55 323.57,776.50 C300.88,845.89 277.24,915.83 262.03,958.50 C241.02,1017.46 203.00,1127.31 203.00,1129.06 C203.00,1130.57 203.71,1131.01 206.25,1131.04 C241.84,1131.50 685.70,1130.70 686.22,1130.18 C687.78,1128.62 710.12,1065.88 735.96,990.50 C752.90,941.05 756.61,929.28 755.58,928.24 C755.17,927.83 701.13,927.38 635.50,927.24 L 516.17 926.98 L 529.11 888.15 L 542.06 849.33 L 617.78 848.66 C760.45,847.41 848.61,848.12 860.83,850.61 C862.88,851.02 864.50,852.10 865.02,853.39 C865.02,853.40 865.02,853.40 865.03,853.40 C865.50,853.40 865.90,663.67 865.94,427.75 L 866.00 0.00 ZM 638.55 1048.00 L 632.42 1066.50 L 471.21 1066.75 C382.54,1066.89 310.00,1066.88 310.00,1066.73 C310.00,1066.34 323.95,1024.88 352.30,941.00 C365.77,901.12 410.78,767.92 452.32,645.00 C537.13,394.03 539.85,385.99 540.48,384.26 C540.78,383.44 550.23,387.64 568.71,396.81 C584.00,404.39 600.33,412.11 605.00,413.96 C609.67,415.82 613.65,417.45 613.84,417.59 C614.08,417.77 432.24,960.53 423.50,985.75 C423.15,986.74 446.12,987.05 535.78,987.24 C597.78,987.37 650.86,987.43 653.75,987.37 C656.64,987.32 659.00,987.66 659.00,988.14 C659.00,988.61 655.78,998.12 651.84,1009.25 C647.90,1020.39 641.92,1037.82 638.55,1048.00 ZM 0.03 986.50 L 0.00 1211.00 L 0.00 0.00 L 0.08 487.75 C0.15,891.28 0.34,969.29 1.42,969.30 C1.46,969.30 1.50,969.20 1.55,969.00 C2.31,965.42 5.39,955.53 8.39,947.00 C11.39,938.47 23.29,902.92 34.83,868.00 C46.38,833.08 71.66,757.92 91.02,701.00 C128.24,591.56 161.78,491.43 176.33,446.32 L 185.10 419.13 L 199.30 414.41 C207.11,411.81 228.77,404.14 247.44,397.36 C266.10,390.59 281.54,385.21 281.74,385.41 C281.94,385.60 279.64,393.58 276.64,403.13 C273.63,412.69 265.02,441.42 257.49,467.00 C230.33,559.28 232.81,551.88 154.54,775.50 C120.08,873.95 81.22,984.99 68.19,1022.25 C55.16,1059.51 44.28,1089.99 44.00,1089.99 C42.89,1089.98 7.57,1008.28 3.15,995.50 ZM 168.00 1209.94 C167.40,1209.96 167.10,1209.97 167.10,1209.99 C167.10,1210.38 313.86,1210.75 504.25,1210.84 L 866.00 1211.00 L 865.97 1036.75 L 865.94 862.50 L 861.57 875.00 C859.17,881.88 844.37,924.40 828.68,969.50 C812.99,1014.60 794.75,1066.57 788.15,1085.00 C781.54,1103.43 773.43,1127.50 770.12,1138.50 C761.70,1166.48 756.63,1180.90 751.11,1192.52 C745.67,1203.95 742.31,1207.39 735.28,1208.73 C732.47,1209.26 619.85,1209.55 462.00,1209.42 C314.33,1209.30 182.02,1209.53 168.00,1209.94 Z" fill="rgb(131,135,138)"/>
<path d="M 0.02 1098.75 L 0.03 986.50 L 3.15 995.50 C7.57,1008.28 42.89,1089.98 44.00,1089.99 C44.28,1089.99 55.16,1059.51 68.19,1022.25 C81.22,984.99 120.08,873.95 154.54,775.50 C232.81,551.88 230.33,559.28 257.49,467.00 C265.02,441.42 273.63,412.69 276.64,403.13 C279.64,393.58 281.94,385.60 281.74,385.41 C281.54,385.21 266.10,390.59 247.44,397.36 C228.77,404.14 207.11,411.81 199.30,414.41 L 185.10 419.13 L 176.33 446.32 C161.78,491.43 128.24,591.56 91.02,701.00 C71.66,757.92 46.38,833.08 34.83,868.00 C23.29,902.92 11.39,938.47 8.39,947.00 C5.39,955.53 2.31,965.42 1.55,969.00 C0.36,974.58 0.15,906.09 0.08,487.75 L 0.00 0.00 L 433.00 0.00 L 866.00 0.00 L 865.94 427.75 C865.90,664.39 865.49,854.56 865.02,853.39 C864.50,852.10 862.88,851.02 860.83,850.61 C848.61,848.12 760.45,847.41 617.78,848.66 L 542.06 849.33 L 529.11 888.15 L 516.17 926.98 L 635.50 927.24 C701.13,927.38 755.17,927.83 755.58,928.24 C756.61,929.28 752.90,941.05 735.96,990.50 C710.12,1065.88 687.78,1128.62 686.22,1130.18 C685.70,1130.70 241.84,1131.50 206.25,1131.04 C203.71,1131.01 203.00,1130.57 203.00,1129.06 C203.00,1127.31 241.02,1017.46 262.03,958.50 C277.24,915.83 300.88,845.89 323.57,776.50 C335.97,738.55 356.44,676.15 369.06,637.84 C381.68,599.52 392.00,567.74 392.00,567.20 C392.00,566.15 361.32,560.00 356.07,560.00 C353.30,560.00 314.60,566.08 308.36,567.50 C307.06,567.79 305.96,569.06 305.55,570.74 C302.58,582.90 202.10,882.92 173.51,965.00 C166.52,985.08 148.51,1037.50 133.49,1081.50 C118.47,1125.50 103.92,1167.37 101.15,1174.55 C94.47,1191.87 92.57,1198.92 93.40,1203.32 C94.14,1207.27 95.98,1208.23 106.00,1209.87 C109.63,1210.46 92.59,1210.81 55.75,1210.88 L 0.00 1211.00 L 0.02 1098.75 ZM 638.55 1048.00 C641.92,1037.82 647.90,1020.39 651.84,1009.25 C655.78,998.12 659.00,988.61 659.00,988.14 C659.00,987.66 656.64,987.32 653.75,987.37 C650.86,987.43 597.78,987.37 535.78,987.24 C446.12,987.05 423.15,986.74 423.50,985.75 C432.24,960.53 614.08,417.77 613.84,417.59 C613.65,417.45 609.67,415.82 605.00,413.96 C600.33,412.11 584.00,404.39 568.71,396.81 C550.23,387.64 540.78,383.44 540.48,384.26 C539.85,385.99 537.13,394.03 452.32,645.00 C410.78,767.92 365.77,901.12 352.30,941.00 C323.95,1024.88 310.00,1066.34 310.00,1066.73 C310.00,1066.88 382.54,1066.89 471.21,1066.75 L 632.42 1066.50 L 638.55 1048.00 ZM 168.00 1209.94 C182.02,1209.53 314.33,1209.30 462.00,1209.42 C619.85,1209.55 732.47,1209.26 735.28,1208.73 C742.31,1207.39 745.67,1203.95 751.11,1192.52 C756.63,1180.90 761.70,1166.48 770.12,1138.50 C773.43,1127.50 781.54,1103.43 788.15,1085.00 C794.75,1066.57 812.99,1014.60 828.68,969.50 C844.37,924.40 859.17,881.88 861.57,875.00 L 865.94 862.50 L 865.97 1036.75 L 866.00 1211.00 L 504.25 1210.84 C305.29,1210.75 153.98,1210.34 168.00,1209.94 Z" fill="rgb(254,254,254)"/>
</g>
</svg>