<svg xmlns="http://www.w3.org/2000/svg" width="1617" height="649" viewBox="0 0 1617 649">
<g>
<path d="M 1421.83 649.00 L 0.00 649.00 L 606.75 648.88 C939.96,648.82 1212.00,648.63 1212.00,648.45 L 1212.00 648.45 C1211.18,648.28 1208.81,647.86 1206.75,647.52 C1203.17,646.94 1203.00,646.74 1203.00,643.02 C1203.00,640.85 1205.03,633.72 1207.62,626.82 C1210.16,620.04 1218.67,595.60 1226.54,572.50 C1234.40,549.40 1244.74,519.25 1249.51,505.50 C1254.29,491.75 1271.41,440.95 1287.56,392.62 C1303.72,344.28 1317.11,304.56 1317.32,304.35 C1317.53,304.14 1323.51,303.01 1330.60,301.84 C1343.25,299.76 1343.69,299.75 1353.31,301.49 C1359.68,302.64 1362.96,303.66 1362.68,304.40 C1362.44,305.03 1354.95,327.81 1346.04,355.02 C1318.98,437.68 1302.88,485.68 1289.04,525.00 C1281.78,545.62 1272.52,571.94 1268.46,583.48 C1264.39,595.02 1261.41,604.81 1261.84,605.24 C1262.26,605.66 1320.62,605.89 1391.52,605.75 L 1520.43 605.50 L 1523.23 598.00 C1530.22,579.29 1558.00,498.85 1558.00,497.32 C1558.00,497.14 1528.93,497.00 1493.39,497.00 C1432.26,497.00 1428.82,496.91 1429.49,495.25 C1429.88,494.29 1433.01,485.05 1436.46,474.72 C1439.91,464.39 1442.99,455.68 1443.31,455.35 C1444.22,454.45 1608.00,454.39 1612.25,455.30 C1615.79,456.05 1616.00,456.30 1616.00,459.92 C1616.00,463.22 1610.00,481.71 1597.98,515.50 C1596.41,519.90 1591.75,533.28 1587.61,545.23 C1583.48,557.17 1577.18,575.17 1573.62,585.23 C1570.06,595.28 1564.86,610.70 1562.07,619.50 C1556.49,637.11 1552.80,644.79 1549.00,646.72 C1547.01,647.73 1513.94,647.98 1387.14,647.94 C1299.49,647.91 1227.53,648.14 1227.22,648.44 C1227.22,648.75 1314.68,649.00 1421.83,649.00 ZM 1498.70 549.99 L 1491.50 570.98 L 1405.25 570.99 C1357.81,571.00 1319.00,570.88 1319.00,570.74 C1319.00,570.44 1330.51,536.21 1349.85,479.00 C1357.00,457.83 1368.26,424.52 1374.85,405.00 C1381.45,385.48 1397.72,337.33 1411.01,298.00 C1424.30,258.67 1436.65,222.09 1438.46,216.71 C1440.27,211.32 1442.03,206.64 1442.37,206.29 C1442.72,205.95 1450.08,209.08 1458.75,213.25 C1467.41,217.42 1476.22,221.53 1478.32,222.39 C1480.42,223.25 1481.88,224.39 1481.55,224.92 C1481.22,225.45 1463.91,276.65 1443.08,338.69 C1422.25,400.74 1399.53,468.34 1392.60,488.92 C1385.67,509.51 1380.00,526.95 1380.00,527.67 C1380.00,528.76 1391.34,529.00 1442.95,529.00 L 1505.90 529.00 ZM 1190.28 544.50 C1183.94,562.65 1178.19,579.08 1177.50,581.00 L 1176.25 584.50 L 1173.55 578.50 C1159.51,547.32 1153.59,532.19 1153.20,526.46 C1152.82,520.77 1153.99,516.84 1173.32,458.96 C1184.60,425.16 1201.78,374.10 1211.49,345.50 C1225.89,303.08 1247.59,237.83 1250.85,227.16 C1251.46,225.15 1255.01,223.58 1276.03,216.04 C1289.49,211.21 1301.37,206.90 1302.42,206.46 C1304.04,205.78 1304.23,205.96 1303.59,207.58 C1303.17,208.63 1297.45,227.50 1290.87,249.50 C1284.30,271.50 1277.53,293.77 1275.84,299.00 C1272.77,308.45 1245.21,387.77 1225.46,444.00 C1214.24,475.95 1208.03,493.69 1190.28,544.50 Z" fill="rgb(131,134,137)"/>
<path d="M 0.00 324.50 L 0.00 0.00 L 808.50 0.00 L 1617.00 0.00 L 1617.00 324.50 L 1617.00 649.00 L 1421.83 649.00 C1314.49,649.00 1226.92,648.75 1227.22,648.44 C1227.53,648.14 1299.49,647.91 1387.14,647.94 C1513.94,647.98 1547.01,647.73 1549.00,646.72 C1552.80,644.79 1556.49,637.11 1562.07,619.50 C1564.86,610.70 1570.06,595.28 1573.62,585.23 C1577.18,575.17 1583.48,557.17 1587.61,545.23 C1591.75,533.28 1596.41,519.90 1597.98,515.50 C1610.00,481.71 1616.00,463.22 1616.00,459.92 C1616.00,456.30 1615.79,456.05 1612.25,455.30 C1608.00,454.39 1444.22,454.45 1443.31,455.35 C1442.99,455.68 1439.91,464.39 1436.46,474.72 C1433.01,485.05 1429.88,494.29 1429.49,495.25 C1428.82,496.91 1432.26,497.00 1493.39,497.00 C1528.93,497.00 1558.00,497.14 1558.00,497.32 C1558.00,498.85 1530.22,579.29 1523.23,598.00 L 1520.43 605.50 L 1391.52 605.75 C1320.62,605.89 1262.26,605.66 1261.84,605.24 C1261.41,604.81 1264.39,595.02 1268.46,583.48 C1272.52,571.94 1281.78,545.62 1289.04,525.00 C1302.88,485.68 1318.98,437.68 1346.04,355.02 C1354.95,327.81 1362.44,305.03 1362.68,304.40 C1362.96,303.66 1359.68,302.64 1353.31,301.49 C1343.69,299.75 1343.25,299.76 1330.60,301.84 C1323.51,303.01 1317.53,304.14 1317.32,304.35 C1317.11,304.56 1303.72,344.28 1287.56,392.62 C1271.41,440.95 1254.29,491.75 1249.51,505.50 C1244.74,519.25 1234.40,549.40 1226.54,572.50 C1218.67,595.60 1210.16,620.04 1207.62,626.82 C1205.03,633.72 1203.00,640.85 1203.00,643.02 C1203.00,646.74 1203.17,646.94 1206.75,647.52 C1208.81,647.86 1211.18,648.28 1212.00,648.45 C1212.82,648.63 940.46,648.82 606.75,648.88 L 0.00 649.00 L 0.00 324.50 ZM 1190.28 544.50 C1208.03,493.69 1214.24,475.95 1225.46,444.00 C1245.21,387.77 1272.77,308.45 1275.84,299.00 C1277.53,293.77 1284.30,271.50 1290.87,249.50 C1297.45,227.50 1303.17,208.63 1303.59,207.58 C1304.23,205.96 1304.04,205.78 1302.42,206.46 C1301.37,206.90 1289.49,211.21 1276.03,216.04 C1255.01,223.58 1251.46,225.15 1250.85,227.16 C1247.59,237.83 1225.89,303.08 1211.49,345.50 C1201.78,374.10 1184.60,425.16 1173.32,458.96 C1153.99,516.84 1152.82,520.77 1153.20,526.46 C1153.59,532.19 1159.51,547.32 1173.55,578.50 L 1176.25 584.50 L 1177.50 581.00 C1178.19,579.08 1183.94,562.65 1190.28,544.50 ZM 1498.70 549.99 L 1505.90 529.00 L 1442.95 529.00 C1391.34,529.00 1380.00,528.76 1380.00,527.67 C1380.00,526.95 1385.67,509.51 1392.60,488.92 C1399.53,468.34 1422.25,400.74 1443.08,338.69 C1463.91,276.65 1481.22,225.45 1481.55,224.92 C1481.88,224.39 1480.42,223.25 1478.32,222.39 C1476.22,221.53 1467.41,217.42 1458.75,213.25 C1450.08,209.08 1442.72,205.95 1442.37,206.29 C1442.03,206.64 1440.27,211.32 1438.46,216.71 C1436.65,222.09 1424.30,258.67 1411.01,298.00 C1397.72,337.33 1381.45,385.48 1374.85,405.00 C1368.26,424.52 1357.00,457.83 1349.85,479.00 C1330.51,536.21 1319.00,570.44 1319.00,570.74 C1319.00,570.88 1357.81,571.00 1405.25,570.99 L 1491.50 570.98 L 1498.70 549.99 Z" fill="rgb(254,254,254)"/>
</g>
</svg>