<svg xmlns="http://www.w3.org/2000/svg" width="866" height="1211" viewBox="0 0 866 1211">
<g>
<path d="M 151.42 1210.25 C151.42,1210.66 311.87,1211.00 508.33,1211.00 L 0.00 1211.00 L 54.75 1210.86 C84.86,1210.79 108.38,1210.54 107.00,1210.31 C105.62,1210.08 102.08,1209.21 99.13,1208.38 L 93.75 1206.87 L 94.23 1199.19 C94.63,1192.76 95.82,1188.63 101.47,1174.00 C105.18,1164.38 118.70,1125.68 131.52,1088.00 C144.33,1050.32 165.04,990.03 177.54,954.00 C190.03,917.97 224.23,816.51 253.54,728.53 C301.75,583.78 307.04,568.49 309.16,567.84 C310.45,567.45 321.75,565.45 334.29,563.40 L 357.07 559.67 L 392.75 566.35 L 389.84 574.92 C388.24,579.64 376.34,615.90 363.40,655.50 C301.72,844.27 285.25,893.49 258.00,970.50 C224.77,1064.43 202.87,1128.22 203.38,1129.55 C203.69,1130.35 205.19,1130.99 206.72,1130.97 C208.25,1130.96 316.51,1131.13 447.30,1131.36 L 685.11 1131.76 L 686.54 1129.58 C689.30,1125.36 721.43,1034.65 743.58,968.50 L 756.98 928.50 L 636.99 928.00 C558.08,927.67 516.97,927.16 516.91,926.50 C516.86,925.95 522.57,908.36 529.59,887.40 L 542.36 849.31 L 665.93 848.62 C780.18,847.98 849.80,848.69 860.00,850.59 C861.92,850.95 864.06,851.95 864.75,852.81 C864.76,852.82 864.76,852.83 864.77,852.83 C865.75,852.82 866.00,766.63 866.00,427.19 L 866.00 1211.00 L 865.96 1037.75 C865.93,884.85 865.75,864.90 864.46,867.87 C863.66,869.72 850.81,906.40 835.91,949.37 C821.01,992.34 801.93,1046.85 793.51,1070.50 C785.08,1094.15 776.15,1120.03 773.66,1128.00 C771.16,1135.97 767.09,1149.03 764.61,1157.00 C758.95,1175.15 752.11,1192.57 747.92,1199.49 C745.89,1202.84 743.18,1205.67 740.60,1207.15 L 736.50 1209.50 L 444.33 1209.50 C283.64,1209.50 151.83,1209.84 151.42,1210.25 ZM 634.98 1059.25 L 632.71 1067.00 L 472.02 1067.00 C383.64,1067.00 311.06,1066.72 310.72,1066.39 C310.38,1066.05 310.74,1064.14 311.52,1062.14 C312.29,1060.14 364.05,907.08 426.54,722.00 C489.02,536.92 540.56,385.08 541.05,384.57 C541.60,384.01 552.82,388.95 569.73,397.20 C585.00,404.66 601.21,412.25 605.75,414.08 C610.29,415.90 614.00,417.71 614.00,418.09 C614.00,418.80 570.22,549.38 476.24,829.00 L 423.31 986.50 L 425.90 987.13 C427.33,987.48 480.36,987.82 543.75,987.88 C607.14,987.95 659.00,988.38 659.00,988.84 C659.00,989.30 654.11,1003.59 648.13,1020.59 C642.15,1037.59 636.23,1054.99 634.98,1059.25 ZM 0.11 1097.25 L 0.00 1211.00 L 0.00 0.00 L 0.12 489.25 C0.19,756.49 0.60,973.03 1.05,973.03 C1.05,973.03 1.05,973.02 1.06,973.00 C2.01,966.51 49.57,823.17 98.27,680.00 C132.20,580.27 163.61,486.42 177.94,441.99 L 185.20 419.48 L 200.85 414.14 C209.46,411.21 231.25,403.45 249.28,396.90 C267.31,390.36 282.20,385.00 282.35,385.00 C282.51,385.00 281.14,389.61 279.30,395.25 C277.45,400.89 270.75,423.05 264.41,444.50 C244.11,513.09 235.96,539.95 228.29,563.50 C224.16,576.15 184.43,690.45 140.00,817.50 C95.56,944.55 55.94,1057.84 51.96,1069.25 C47.99,1080.66 44.34,1090.00 43.87,1090.00 C43.39,1090.00 43.00,1089.61 43.00,1089.13 C43.00,1088.66 36.10,1072.57 27.67,1053.38 C10.72,1014.83 2.31,994.08 1.05,987.70 C0.59,985.36 0.17,1033.92 0.11,1097.25 Z" fill="rgb(130,134,137)"/>
<path d="M 0.78 947.38 C0.95,963.73 1.15,970.15 1.41,970.16 C1.43,970.16 1.45,970.10 1.48,970.00 C2.85,964.06 35.81,864.92 70.01,763.48 C32.66,874.28 1.83,967.79 1.06,973.00 C1.05,973.02 1.05,973.03 1.05,973.03 C0.96,973.03 0.87,964.01 0.78,947.38 ZM 0.75 993.21 C0.85,989.15 0.95,987.18 1.05,987.70 C1.41,989.52 2.35,992.50 3.90,996.73 C2.43,992.97 1.31,990.16 1.02,989.50 C0.92,989.29 0.84,990.58 0.75,993.21 ZM 86.55 714.52 C90.53,702.79 94.45,691.24 98.27,680.00 C108.81,649.03 119.10,618.63 128.71,590.10 C119.10,618.63 108.81,649.03 98.27,680.00 C94.35,691.53 90.44,703.06 86.55,714.52 Z" fill="none"/>
<path d="M 1.31 969.84 C2.23,966.83 5.38,957.21 10.06,943.05 C4.99,958.51 1.88,968.26 1.48,970.00 C1.45,970.10 1.43,970.16 1.41,970.16 C1.37,970.16 1.34,970.05 1.31,969.84 ZM 0.74 939.45 C0.79,946.18 0.84,951.76 0.89,956.23 C0.85,953.68 0.82,950.74 0.78,947.38 C0.77,944.91 0.76,942.26 0.74,939.45 Z" fill="none"/>
<path d="M 0.07 1099.25 C0.11,1033.86 0.50,988.33 1.02,989.50 C1.50,990.60 4.25,997.58 7.12,1005.00 C9.98,1012.42 19.23,1034.20 27.67,1053.38 C36.10,1072.57 43.00,1088.66 43.00,1089.13 C43.00,1089.61 43.39,1090.00 43.87,1090.00 C44.34,1090.00 47.99,1080.66 51.96,1069.25 C55.94,1057.84 95.56,944.55 140.00,817.50 C184.43,690.45 224.16,576.15 228.29,563.50 C235.96,539.95 244.11,513.09 264.41,444.50 C270.75,423.05 277.45,400.89 279.30,395.25 C281.14,389.61 282.51,385.00 282.35,385.00 C282.20,385.00 267.31,390.36 249.28,396.90 C231.25,403.45 209.46,411.21 200.85,414.14 L 185.20 419.48 L 177.94 441.99 C163.61,486.42 132.20,580.27 98.27,680.00 C70.21,762.50 5.59,955.67 1.26,970.00 C0.51,972.47 0.17,830.62 0.10,486.75 L 0.00 0.00 L 433.00 0.00 L 866.00 0.00 L 866.00 427.19 C866.00,769.11 865.75,854.07 864.75,852.81 C864.06,851.95 861.92,850.95 860.00,850.59 C849.80,848.69 780.18,847.98 665.93,848.62 L 542.36 849.31 L 529.59 887.40 C522.57,908.36 516.86,925.95 516.91,926.50 C516.97,927.16 558.08,927.67 636.99,928.00 L 756.98 928.50 L 743.58 968.50 C721.43,1034.65 689.30,1125.36 686.54,1129.58 L 685.11 1131.76 L 447.30 1131.36 C316.51,1131.13 208.25,1130.96 206.72,1130.97 C205.19,1130.99 203.69,1130.35 203.38,1129.55 C202.87,1128.22 224.77,1064.43 258.00,970.50 C285.25,893.49 301.72,844.27 363.40,655.50 C376.34,615.90 388.24,579.64 389.84,574.92 L 392.75 566.35 L 374.91 563.01 L 357.07 559.67 L 334.29 563.40 C321.75,565.45 310.45,567.45 309.16,567.84 C307.04,568.49 301.75,583.78 253.54,728.53 C224.23,816.51 190.03,917.97 177.54,954.00 C165.04,990.03 144.33,1050.32 131.52,1088.00 C118.70,1125.68 105.18,1164.38 101.47,1174.00 C95.82,1188.63 94.63,1192.76 94.23,1199.19 L 93.75 1206.87 L 99.13 1208.38 C102.08,1209.21 105.62,1210.08 107.00,1210.31 C108.38,1210.54 84.86,1210.79 54.75,1210.86 L 0.00 1211.00 L 0.07 1099.25 ZM 634.98 1059.25 C636.23,1054.99 642.15,1037.59 648.13,1020.59 C654.11,1003.59 659.00,989.30 659.00,988.84 C659.00,988.38 607.14,987.95 543.75,987.88 C480.36,987.82 427.33,987.48 425.90,987.13 L 423.31 986.50 L 476.24 829.00 C570.22,549.38 614.00,418.80 614.00,418.09 C614.00,417.71 610.29,415.90 605.75,414.08 C601.21,412.25 585.00,404.66 569.73,397.20 C552.82,388.95 541.60,384.01 541.05,384.57 C540.56,385.08 489.02,536.92 426.54,722.00 C364.05,907.08 312.29,1060.14 311.52,1062.14 C310.74,1064.14 310.38,1066.05 310.72,1066.39 C311.06,1066.72 383.64,1067.00 472.02,1067.00 L 632.71 1067.00 L 634.98 1059.25 ZM 151.42 1210.25 C151.83,1209.84 283.64,1209.50 444.33,1209.50 L 736.50 1209.50 L 740.60 1207.15 C743.18,1205.67 745.89,1202.84 747.92,1199.49 C752.11,1192.57 758.95,1175.15 764.61,1157.00 C767.09,1149.03 771.16,1135.97 773.66,1128.00 C776.15,1120.03 785.08,1094.15 793.51,1070.50 C801.93,1046.85 821.01,992.34 835.91,949.37 C850.81,906.40 863.66,869.72 864.46,867.87 C865.75,864.90 865.93,884.85 865.96,1037.75 L 866.00 1211.00 L 508.33 1211.00 C311.62,1211.00 151.00,1210.66 151.42,1210.25 Z" fill="none"/>
</g>
</svg>